<svg width="1093" height="1708" viewBox="0 0 1093 1708" fill="none" xmlns="http://www.w3.org/2000/svg">
<g clip-path="url(#clip0)">
<path d="M382.689 858.741V499.101H-11.0805V858.741H382.689Z" fill="#1400F5"/>
<path d="M235.769 542.691L382.689 858.631V653.961L235.769 542.691Z" fill="black"/>
<path d="M1092.75 464.851V858.621H733.11V824.491C733.11 625.871 894.12 464.851 1092.75 464.851Z" fill="#FF5B02"/>
<path d="M962.529 858.631V702.721C962.529 678.671 943.039 659.181 918.989 659.181C894.939 659.181 875.449 678.671 875.449 702.721V858.631H962.529Z" fill="black"/>
<path d="M276.552 614.438C337.196 675.082 435.519 675.082 496.163 614.438C556.807 553.794 556.807 455.471 496.163 394.827C435.519 334.183 337.196 334.183 276.552 394.827C215.908 455.471 215.908 553.794 276.552 614.438Z" fill="#FF5B02"/>
<path d="M357.76 549.887C382.729 565.698 415.787 558.274 431.598 533.305C447.409 508.336 439.984 475.277 415.015 459.466C390.046 443.656 356.988 451.08 341.177 476.049C325.366 501.018 332.79 534.077 357.76 549.887Z" fill="white"/>
<path d="M785.719 428.391C784.739 473.691 747.739 510.111 702.199 510.111C656.659 510.111 619.669 473.691 618.679 428.391H570.619C571.609 500.221 630.129 558.151 702.199 558.151C774.269 558.151 832.789 500.221 833.779 428.391H785.719Z" fill="#FFC71F"/>
<path d="M745.23 271.581H1092.75V619.101C900.82 619.091 745.23 463.501 745.23 271.581Z" fill="black"/>
<path d="M-11.0807 711.801V425.981H253.529V447.191C253.529 593.331 135.059 711.801 -11.0807 711.801Z" fill="#FFC71F"/>
<path d="M1092.75 313.851V0.930542L779.83 0.930542V313.851H1092.75Z" fill="#FFC71F"/>
<path d="M449.65 163.551V0.930542L1092.75 0.930542C1092.75 90.7405 1019.94 163.551 930.13 163.551L449.65 163.551Z" fill="#1400F5"/>
<path d="M334.213 34.007C397.97 97.7634 501.339 97.7634 565.095 34.007C628.852 -29.7494 628.852 -133.119 565.095 -196.875C501.339 -260.632 397.97 -260.632 334.213 -196.875C270.457 -133.119 270.457 -29.7494 334.213 34.007Z" fill="#FF5B02"/>
<path d="M449.65 -81.4294V81.8305C360.09 81.8305 286.39 8.13055 286.39 -81.4294C286.39 -170.989 360.09 -244.689 449.65 -244.689C539.21 -244.689 612.91 -170.989 612.91 -81.4294C612.91 -78.4894 612.83 -75.5395 612.67 -72.5995L449.65 -81.4294Z" fill="#1400F5"/>
<path d="M449.65 -81.4294V81.8305C360.09 81.8305 286.39 8.13055 286.39 -81.4294C286.39 -170.989 360.09 -244.689 449.65 -244.689C463.75 -244.689 477.8 -242.859 491.43 -239.249L449.65 -81.4294Z" fill="#FFC71F"/>
<path d="M450.471 164.351V-116.199L-10.4993 -116.199V164.351H450.471Z" fill="#FF1F71"/>
<path d="M-10.5098 159.971V-116.199L265.66 -116.199C265.66 36.3205 142.02 159.971 -10.5098 159.971Z" fill="#1400F5"/>
<path d="M450.471 -116.199C450.441 -116.199 450.411 -116.199 450.381 -116.199C372.911 -116.199 310.101 -53.3995 310.101 24.0805C310.101 101.551 372.901 164.361 450.381 164.361C450.411 164.361 450.441 164.361 450.471 164.361V-116.199Z" fill="#FFC71F"/>
<path d="M450.471 164.351L188.041 164.351L450.471 426.781V164.351Z" fill="black"/>
<path d="M-8.90076 163.551H-10.5107V427.581H253.529V425.981L-8.90076 163.551Z" fill="#FF1F71"/>
<path d="M246.99 296.371C246.99 335.837 278.984 367.831 318.45 367.831C357.916 367.831 389.91 335.837 389.91 296.371C389.91 256.904 357.916 224.911 318.45 224.911C278.984 224.911 246.99 256.904 246.99 296.371Z" fill="#FF5B02"/>
<path d="M283.199 296.371C283.199 315.839 298.981 331.621 318.449 331.621C337.917 331.621 353.699 315.839 353.699 296.371C353.699 276.903 337.917 261.121 318.449 261.121C298.981 261.121 283.199 276.903 283.199 296.371Z" stroke="white" stroke-width="5.9307" stroke-miterlimit="10"/>
<path d="M191.92 564.961V367.831H175.49V564.961H191.92Z" fill="white"/>
<path d="M160.82 564.961V367.831H144.39V564.961H160.82Z" fill="black"/>
<path d="M98.6309 564.961L98.6309 367.831H82.2009L82.2009 564.961H98.6309Z" fill="black"/>
<path d="M36.4395 564.961L36.4395 367.831H20.0095L20.0095 564.961H36.4395Z" fill="black"/>
<path d="M129.73 564.961V367.831H113.3L113.3 564.961H129.73Z" fill="white"/>
<path d="M67.5293 564.961L67.5293 367.831H51.0992L51.0992 564.961H67.5293Z" fill="white"/>
<path d="M5.33984 564.961L5.33984 367.831H-11.0901L-11.0901 564.961H5.33984Z" fill="white"/>
<path d="M451.469 0.930527V-116.199L751.279 -116.199V-67.8595L451.469 0.930527Z" fill="#61D0FF"/>
<path d="M749.361 18.6606C738.291 17.6006 730.171 7.76057 731.231 -3.30943C732.291 -14.3794 742.131 -22.4994 753.201 -21.4394C764.271 -20.3794 772.391 -10.5394 771.331 0.530563C770.271 11.6006 760.431 19.7206 749.361 18.6606Z" fill="#FFC71F"/>
<path d="M680.15 19.1306C669.08 18.0706 660.96 8.23057 662.02 -2.83943C663.08 -13.9094 672.92 -22.0294 683.99 -20.9694C695.06 -19.9094 703.18 -10.0694 702.12 1.00056C701.05 12.0706 691.22 20.1906 680.15 19.1306Z" fill="#FFC71F"/>
<path d="M600.287 17.5788C610.768 21.3016 622.283 15.8229 626.006 5.3417C629.729 -5.13952 624.25 -16.6542 613.769 -20.3771C603.288 -24.1 591.773 -18.6212 588.05 -8.14001C584.327 2.3412 589.806 13.8559 600.287 17.5788Z" fill="#FFC71F"/>
<path d="M330.811 30.9107C335.79 61.5869 364.693 82.4189 395.37 77.4404C426.046 72.4618 446.878 43.558 441.899 12.8818C436.921 -17.7943 408.017 -38.6264 377.341 -33.6478C346.664 -28.6693 325.832 0.234565 330.811 30.9107Z" fill="#FF5B02"/>
<path d="M370.232 38.0046C379.14 46.9124 393.583 46.9124 402.49 38.0046C411.398 29.0968 411.398 14.6545 402.49 5.74672C393.583 -3.16106 379.14 -3.16106 370.232 5.74672C361.325 14.6545 361.325 29.0968 370.232 38.0046Z" fill="white"/>
<path d="M141.513 43.8324C143.922 49.6493 150.591 52.4115 156.408 50.002C162.225 47.5925 164.987 40.9237 162.578 35.1068C160.168 29.2899 153.499 26.5276 147.682 28.9371C141.865 31.3466 139.103 38.0154 141.513 43.8324Z" fill="black"/>
<path d="M66.3602 39.4506C66.3602 45.7466 71.4641 50.8506 77.7602 50.8506C84.0562 50.8506 89.1602 45.7466 89.1602 39.4506C89.1602 33.1545 84.0562 28.0506 77.7602 28.0506C71.4641 28.0506 66.3602 33.1545 66.3602 39.4506Z" fill="black"/>
<path d="M142.582 114.463C146.112 119.677 153.2 121.042 158.414 117.513C163.627 113.983 164.993 106.895 161.463 101.681C157.934 96.4677 150.846 95.1024 145.632 98.6319C140.418 102.162 139.053 109.249 142.582 114.463Z" fill="black"/>
<path d="M66.3602 108.091C66.3602 114.387 71.4641 119.491 77.7602 119.491C84.0562 119.491 89.1602 114.387 89.1602 108.091C89.1602 101.794 84.0562 96.6906 77.7602 96.6906C71.4641 96.6906 66.3602 101.794 66.3602 108.091Z" fill="black"/>
<path d="M149.373 187.786C155.5 189.233 161.64 185.438 163.087 179.311C164.534 173.184 160.739 167.044 154.612 165.597C148.485 164.15 142.345 167.944 140.898 174.071C139.451 180.199 143.245 186.339 149.373 187.786Z" fill="black"/>
<path d="M66.3602 176.721C66.3602 183.017 71.4641 188.121 77.7602 188.121C84.0562 188.121 89.1602 183.017 89.1602 176.721C89.1602 170.425 84.0562 165.321 77.7602 165.321C71.4641 165.321 66.3602 170.425 66.3602 176.721Z" fill="black"/>
<path d="M141.472 249.67C143.865 255.494 150.526 258.276 156.349 255.883C162.173 253.491 164.955 246.83 162.562 241.006C160.17 235.183 153.509 232.401 147.685 234.793C141.862 237.186 139.08 243.847 141.472 249.67Z" fill="black"/>
<path d="M66.3602 245.361C66.3602 251.657 71.4641 256.761 77.7602 256.761C84.0562 256.761 89.1602 251.657 89.1602 245.361C89.1602 239.065 84.0562 233.961 77.7602 233.961C71.4641 233.961 66.3602 239.065 66.3602 245.361Z" fill="black"/>
<path d="M895.58 313.851V163.551H745.28V313.851H895.58Z" fill="#FF5B02"/>
<path d="M450.47 164.351L661.93 427.581H450.47V164.351Z" fill="#FF1F71"/>
<path d="M771.199 367.021C771.199 327.561 739.209 295.561 699.739 295.561C660.279 295.561 628.279 327.551 628.279 367.021C628.279 406.481 660.269 438.481 699.739 438.481C739.209 438.481 771.199 406.491 771.199 367.021ZM654.369 367.021C654.369 341.961 674.679 321.651 699.739 321.651C724.799 321.651 745.109 341.961 745.109 367.021C745.109 392.081 724.799 412.391 699.739 412.391C674.679 412.391 654.369 392.081 654.369 367.021Z" fill="#1400F5"/>
<path d="M717.42 367.021C717.42 357.261 709.51 349.341 699.74 349.341C689.98 349.341 682.06 357.251 682.06 367.021C682.06 376.781 689.97 384.691 699.74 384.691C709.5 384.701 717.42 376.791 717.42 367.021Z" fill="black"/>
<path d="M696.909 367.969L704.551 361.658L533.315 154.309L525.674 160.62L696.909 367.969Z" fill="black"/>
<path d="M701.199 858.741L386.779 478.011L379.139 484.321L688.339 858.741H701.199Z" fill="black"/>
<path d="M679.689 858.741L373.999 488.571L366.349 494.881L666.829 858.741H679.689Z" fill="black"/>
<path d="M658.24 858.741L361.24 499.101L353.6 505.411L645.38 858.741H658.24Z" fill="black"/>
<path d="M514.673 159.272C515.687 167.505 523.183 173.357 531.416 172.343C539.649 171.33 545.501 163.834 544.488 155.601C543.474 147.368 535.978 141.515 527.745 142.529C519.512 143.542 513.659 151.038 514.673 159.272Z" fill="#FF5B02"/>
<path d="M1026.06 347.201V314.231H991.631V347.201C991.631 356.711 999.341 364.411 1008.84 364.411C1018.34 364.411 1026.06 356.711 1026.06 347.201Z" fill="#FF1F71"/>
<path d="M1026.06 231.781C1026.06 222.271 1018.35 214.571 1008.85 214.571C999.351 214.571 991.641 222.281 991.641 231.781V314.231H1026.06V231.781Z" fill="#1400F5"/>
<path d="M929.031 283.421V314.581H963.461V283.421C963.461 273.911 955.751 266.211 946.251 266.211C936.741 266.211 929.031 273.911 929.031 283.421Z" fill="#FF1F71"/>
<path d="M929.031 397.031C929.031 406.541 936.741 414.241 946.251 414.241C955.761 414.241 963.461 406.531 963.461 397.031V314.581H929.031V397.031Z" fill="#1400F5"/>
<path d="M682.071 703.481C682.071 679.431 701.561 659.941 725.611 659.941H919.921C943.971 659.941 963.461 679.431 963.461 703.481C963.461 727.531 943.971 747.021 919.921 747.021H725.601C701.561 747.021 682.071 727.521 682.071 703.481Z" fill="white"/>
<path d="M682.07 703.481C682.07 679.431 701.56 659.941 725.61 659.941H736.29C760.34 659.941 779.83 679.431 779.83 703.481C779.83 727.531 760.34 747.021 736.29 747.021H725.61C701.56 747.021 682.07 727.521 682.07 703.481Z" fill="#1400F5"/>
<path d="M599.08 349.351V426.781H661.93L599.08 349.351Z" fill="black"/>
<path d="M382.699 1208.96V858.741H-11.0707V1208.96H382.699Z" fill="#1400F5"/>
<path d="M235.721 1168.11L382.651 852.171L382.721 852.021V1056.69L235.721 1168.11Z" fill="black"/>
<path d="M1092.08 1243.21V849.441H732.44V883.571C732.44 1082.19 893.46 1243.21 1092.08 1243.21Z" fill="#FF5B02"/>
<path d="M962.529 848.711V1004.62C962.529 1028.67 943.039 1048.16 918.989 1048.16C894.939 1048.16 875.449 1028.67 875.449 1004.62V848.711H962.529Z" fill="black"/>
<path d="M230.41 1203.42C230.41 1289.18 299.936 1358.71 385.7 1358.71C471.465 1358.71 540.99 1289.18 540.99 1203.42C540.99 1117.66 471.465 1048.13 385.7 1048.13C299.936 1048.13 230.41 1117.66 230.41 1203.42Z" fill="#FF5B02"/>
<path d="M333.725 1215.68C340.516 1244.44 369.337 1262.25 398.097 1255.46C426.858 1248.67 444.668 1219.85 437.877 1191.09C431.085 1162.32 402.265 1144.52 373.504 1151.31C344.743 1158.1 326.934 1186.92 333.725 1215.68Z" fill="white"/>
<path d="M785.059 1279.67C784.079 1234.37 747.079 1197.95 701.539 1197.95C656.009 1197.95 619.009 1234.37 618.019 1280.09H569.959C570.949 1207.84 629.469 1149.91 701.539 1149.91C773.609 1149.91 832.129 1207.84 833.119 1279.67H785.059Z" fill="#FFC71F"/>
<path d="M744.57 1436.49H1092.09V1088.97C900.15 1088.97 744.57 1244.56 744.57 1436.49Z" fill="black"/>
<path d="M-11.7506 996.261V1282.08H252.859V1260.87C252.859 1114.73 134.389 996.261 -11.7506 996.261Z" fill="#FFC71F"/>
<path d="M779.16 1394.22V1707.14H1092.08V1394.22H779.16Z" fill="#FFC71F"/>
<path d="M448.99 1544.51V1707.13H1092.09C1092.09 1617.32 1019.28 1544.51 929.47 1544.51H448.99V1544.51Z" fill="#1400F5"/>
<path d="M333.537 1904.91C397.294 1968.67 500.663 1968.67 564.42 1904.91C628.176 1841.16 628.176 1737.79 564.42 1674.03C500.663 1610.27 397.294 1610.27 333.537 1674.03C269.781 1737.79 269.781 1841.16 333.537 1904.91Z" fill="#FF5B02"/>
<path d="M448.99 1789.49V1626.23C359.43 1626.23 285.73 1699.93 285.73 1789.49C285.73 1879.05 359.43 1952.75 448.99 1952.75C538.55 1952.75 612.25 1879.05 612.25 1789.49C612.25 1786.55 612.17 1783.6 612.01 1780.66L448.99 1789.49Z" fill="#1400F5"/>
<path d="M448.99 1789.49V1626.23C359.43 1626.23 285.729 1699.93 285.729 1789.49C285.729 1879.05 359.43 1952.75 448.99 1952.75C463.09 1952.75 477.14 1950.92 490.77 1947.31L448.99 1789.49Z" fill="#FFC71F"/>
<path d="M-11.168 1543.71L-11.168 1824.26H449.802V1543.71H-11.168Z" fill="#FF1F71"/>
<path d="M-11.1698 1548.1V1824.26H264.99C264.99 1671.74 141.35 1548.1 -11.1698 1548.1Z" fill="#1400F5"/>
<path d="M449.801 1824.26C449.771 1824.26 449.741 1824.26 449.711 1824.26C372.241 1824.26 309.431 1761.46 309.431 1683.98C309.431 1606.51 372.231 1543.7 449.711 1543.7C449.741 1543.7 449.771 1543.7 449.801 1543.7V1824.26Z" fill="#FFC71F"/>
<path d="M449.801 1543.71H187.381L449.801 1281.28V1543.71Z" fill="black"/>
<path d="M-9.56067 1544.51H-11.1707V1280.48H252.859V1282.09L-9.56067 1544.51Z" fill="#FF1F71"/>
<path d="M247.262 1423.17C253.585 1462.13 290.291 1488.59 329.248 1482.26C368.205 1475.94 394.661 1439.23 388.339 1400.28C382.016 1361.32 345.31 1334.86 306.352 1341.19C267.395 1347.51 240.94 1384.22 247.262 1423.17Z" fill="#FF5B02"/>
<path d="M282.529 1411.69C282.529 1431.16 298.311 1446.94 317.779 1446.94C337.247 1446.94 353.029 1431.16 353.029 1411.69C353.029 1392.22 337.247 1376.44 317.779 1376.44C298.311 1376.44 282.529 1392.22 282.529 1411.69Z" stroke="white" stroke-width="5.9307" stroke-miterlimit="10"/>
<path d="M174.826 1143.1V1340.23H191.256V1143.1H174.826Z" fill="white"/>
<path d="M143.727 1143.1V1340.23H160.157V1143.1H143.727Z" fill="black"/>
<path d="M81.5332 1143.1L81.5332 1340.23H97.9632L97.9632 1143.1H81.5332Z" fill="black"/>
<path d="M112.635 1143.1L112.635 1340.23H129.065V1143.1H112.635Z" fill="white"/>
<path d="M50.4434 1143.1L50.4434 1340.23H66.8734L66.8734 1143.1H50.4434Z" fill="white"/>
<path d="M376.695 1741.76C407.371 1746.74 436.275 1725.91 441.253 1695.23C446.232 1664.56 425.4 1635.65 394.724 1630.67C364.048 1625.69 335.144 1646.53 330.165 1677.2C325.187 1707.88 346.019 1736.78 376.695 1741.76Z" fill="#FF5B02"/>
<path d="M363.895 1692.82C367.546 1704.87 380.279 1711.69 392.336 1708.04C404.394 1704.39 411.208 1691.65 407.558 1679.6C403.907 1667.54 391.173 1660.72 379.116 1664.37C367.059 1668.02 360.244 1680.76 363.895 1692.82Z" fill="white"/>
<path d="M147.051 1679.19C152.868 1681.6 159.537 1678.84 161.946 1673.02C164.356 1667.21 161.594 1660.54 155.777 1658.13C149.96 1655.72 143.291 1658.48 140.881 1664.3C138.472 1670.11 141.234 1676.78 147.051 1679.19Z" fill="black"/>
<path d="M65.6883 1668.61C65.6883 1674.91 70.7923 1680.01 77.0883 1680.01C83.3844 1680.01 88.4883 1674.91 88.4883 1668.61C88.4883 1662.31 83.3844 1657.21 77.0883 1657.21C70.7923 1657.21 65.6883 1662.31 65.6883 1668.61Z" fill="black"/>
<path d="M143.32 1608.01C147.772 1612.47 154.99 1612.47 159.442 1608.01C163.894 1603.56 163.894 1596.34 159.442 1591.89C154.99 1587.44 147.772 1587.44 143.32 1591.89C138.868 1596.34 138.868 1603.56 143.32 1608.01Z" fill="black"/>
<path d="M65.6883 1599.97C65.6883 1606.27 70.7923 1611.37 77.0883 1611.37C83.3844 1611.37 88.4883 1606.27 88.4883 1599.97C88.4883 1593.67 83.3844 1588.57 77.0883 1588.57C70.7923 1588.57 65.6883 1593.67 65.6883 1599.97Z" fill="black"/>
<path d="M147.049 1541.92C152.866 1544.33 159.535 1541.57 161.944 1535.75C164.354 1529.93 161.592 1523.27 155.775 1520.86C149.958 1518.45 143.289 1521.21 140.879 1527.03C138.47 1532.84 141.232 1539.51 147.049 1541.92Z" fill="black"/>
<path d="M65.6902 1531.34C65.6902 1537.64 70.7942 1542.74 77.0903 1542.74C83.3863 1542.74 88.4902 1537.64 88.4902 1531.34C88.4902 1525.04 83.3863 1519.94 77.0903 1519.94C70.7942 1519.94 65.6902 1525.04 65.6902 1531.34Z" fill="black"/>
<path d="M147.043 1473.28C152.86 1475.69 159.529 1472.93 161.938 1467.11C164.348 1461.3 161.586 1454.63 155.769 1452.22C149.952 1449.81 143.283 1452.57 140.874 1458.39C138.464 1464.2 141.226 1470.87 147.043 1473.28Z" fill="black"/>
<path d="M65.6902 1462.7C65.6902 1469 70.7942 1474.1 77.0903 1474.1C83.3863 1474.1 88.4902 1469 88.4902 1462.7C88.4902 1456.4 83.3863 1451.3 77.0903 1451.3C70.7942 1451.3 65.6902 1456.4 65.6902 1462.7Z" fill="black"/>
<path d="M744.615 1394.21V1544.51H894.915V1394.21H744.615Z" fill="#FF5B02"/>
<path d="M661.131 1280.09H598.731V1357.78L661.131 1280.09Z" fill="black"/>
<path d="M449.67 1543.32L598.73 1357.78V1280.09H449.67V1543.32Z" fill="#FF1F71"/>
<path d="M699.079 1269.58C659.619 1269.58 627.619 1301.57 627.619 1341.04C627.619 1380.5 659.609 1412.5 699.079 1412.5C738.539 1412.5 770.539 1380.51 770.539 1341.04C770.529 1301.57 738.539 1269.58 699.079 1269.58ZM699.079 1295.66C724.139 1295.66 744.449 1315.97 744.449 1341.03C744.449 1366.09 724.139 1386.4 699.079 1386.4C674.019 1386.4 653.709 1366.09 653.709 1341.03C653.699 1315.98 674.019 1295.66 699.079 1295.66Z" fill="#1400F5"/>
<path d="M699.08 1323.36C689.32 1323.36 681.4 1331.27 681.4 1341.04C681.4 1350.8 689.31 1358.72 699.08 1358.72C708.84 1358.72 716.76 1350.81 716.76 1341.04C716.75 1331.28 708.84 1323.36 699.08 1323.36Z" fill="black"/>
<path d="M525.001 1547.37L532.643 1553.68L703.878 1346.33L696.236 1340.02L525.001 1547.37Z" fill="black"/>
<path d="M701.199 858.741L386.119 1230.05L378.469 1223.74L688.339 858.741H701.199Z" fill="black"/>
<path d="M679.689 858.741L373.329 1219.49L365.689 1213.18L666.829 858.741H679.689Z" fill="black"/>
<path d="M658.24 858.741L360.58 1208.96L352.93 1202.65L645.38 858.741H658.24Z" fill="black"/>
<path d="M514.099 1553.08C515.428 1561.27 523.144 1566.83 531.332 1565.5C539.52 1564.17 545.081 1556.45 543.752 1548.27C542.423 1540.08 534.708 1534.52 526.52 1535.85C518.331 1537.18 512.771 1544.89 514.099 1553.08Z" fill="#FF5B02"/>
<path d="M1025.4 1360.86V1393.83H990.97V1360.86C990.97 1351.35 998.68 1343.65 1008.18 1343.65C1017.69 1343.65 1025.4 1351.36 1025.4 1360.86Z" fill="#FF1F71"/>
<path d="M1025.4 1476.28C1025.4 1485.79 1017.69 1493.49 1008.19 1493.49C998.68 1493.49 990.98 1485.78 990.98 1476.28V1393.83H1025.4V1476.28Z" fill="#1400F5"/>
<path d="M928.371 1424.64V1393.48H962.801V1424.64C962.801 1434.15 955.091 1441.85 945.591 1441.85C936.081 1441.86 928.371 1434.15 928.371 1424.64Z" fill="#FF1F71"/>
<path d="M928.371 1311.03C928.371 1301.52 936.081 1293.82 945.591 1293.82C955.101 1293.82 962.801 1301.53 962.801 1311.03V1393.48H928.371V1311.03Z" fill="#1400F5"/>
<path d="M681.401 1004.58C681.401 1028.63 700.891 1048.12 724.941 1048.12H919.261C943.311 1048.12 962.801 1028.63 962.801 1004.58C962.801 980.531 943.311 961.041 919.261 961.041H724.941C700.901 961.041 681.401 980.541 681.401 1004.58Z" fill="white"/>
<path d="M681.4 1004.58C681.4 1028.63 700.89 1048.12 724.94 1048.12H735.62C759.67 1048.12 779.16 1028.63 779.16 1004.58C779.16 980.531 759.67 961.041 735.62 961.041H724.94C700.9 961.041 681.4 980.541 681.4 1004.58Z" fill="#1400F5"/>
<path d="M819.749 473.461C808.679 474.521 800.559 484.361 801.619 495.431C802.679 506.501 812.519 514.621 823.589 513.561C834.659 512.501 842.779 502.661 841.719 491.591C840.659 480.511 830.819 472.401 819.749 473.461Z" fill="#FFC71F"/>
<path d="M734.927 502.87C740.37 512.57 752.646 516.022 762.346 510.579C772.046 505.137 775.498 492.861 770.056 483.161C764.613 473.46 752.337 470.009 742.637 475.451C732.937 480.894 729.485 493.169 734.927 502.87Z" fill="#FFC71F"/>
<path d="M664.505 508.931C673.032 516.073 685.734 514.95 692.876 506.423C700.019 497.896 698.896 485.194 690.369 478.052C681.842 470.91 669.14 472.032 661.998 480.559C654.856 489.086 655.978 501.788 664.505 508.931Z" fill="#FFC71F"/>
</g>
<defs>
<clipPath id="clip0">
<rect width="1707" height="1092" fill="white" transform="translate(1092.5 0.5) rotate(90)"/>
</clipPath>
</defs>
</svg>
