<svg width="926" height="173" viewBox="0 0 926 173" fill="none" xmlns="http://www.w3.org/2000/svg">
<path d="M467.24 0.633789H239.742V173H467.24V0.633789Z" fill="#1400F5"/>
<path d="M372.82 173H191.582V82.3809H205.031C297.698 82.3809 372.82 122.952 372.82 173Z" fill="#FFC71F"/>
<path d="M25.5527 171.188V171.733H192.849V82.3809H191.836L25.5527 171.188Z" fill="#FF1F71"/>
<path d="M279.956 121.404H155.035V131.816H279.956V121.404Z" fill="white"/>
<path d="M279.956 141.112H155.035V151.524H279.956V141.112Z" fill="black"/>
<path d="M279.956 160.814H155.035V171.226H279.956V160.814Z" fill="white"/>
<path d="M13.0905 102.652C16.7767 101.125 18.5271 96.8991 17.0003 93.2129C15.4734 89.5267 11.2473 87.7763 7.56114 89.3032C3.87496 90.8301 2.12452 95.0561 3.65142 98.7423C5.17831 102.428 9.40436 104.179 13.0905 102.652Z" fill="black"/>
<path d="M10.314 150.275C14.3038 150.275 17.5382 147.041 17.5382 143.051C17.5382 139.061 14.3038 135.827 10.314 135.827C6.32422 135.827 3.08984 139.061 3.08984 143.051C3.08984 147.041 6.32422 150.275 10.314 150.275Z" fill="black"/>
<path d="M57.8477 101.974C61.1517 99.7372 62.0169 95.2456 59.7802 91.9417C57.5435 88.6377 53.0519 87.7725 49.748 90.0092C46.444 92.2459 45.5788 96.7375 47.8155 100.041C50.0522 103.345 54.5438 104.211 57.8477 101.974Z" fill="black"/>
<path d="M53.8101 150.275C57.7999 150.275 61.0343 147.041 61.0343 143.051C61.0343 139.061 57.7999 135.827 53.8101 135.827C49.8203 135.827 46.5859 139.061 46.5859 143.051C46.5859 147.041 49.8203 150.275 53.8101 150.275Z" fill="black"/>
<path d="M104.311 97.6705C105.228 93.7877 102.824 89.8967 98.9407 88.9798C95.0578 88.063 91.1668 90.4674 90.25 94.3503C89.3331 98.2332 91.7376 102.124 95.6204 103.041C99.5033 103.958 103.394 101.553 104.311 97.6705Z" fill="black"/>
<path d="M97.2984 150.276C101.288 150.276 104.523 147.042 104.523 143.052C104.523 139.062 101.288 135.828 97.2984 135.828C93.3086 135.828 90.0742 139.062 90.0742 143.052C90.0742 147.042 93.3086 150.276 97.2984 150.276Z" fill="black"/>
<path d="M143.528 102.677C147.219 101.161 148.982 96.9397 147.465 93.2491C145.949 89.5586 141.728 87.7958 138.038 89.3119C134.347 90.8281 132.585 95.0489 134.101 98.7395C135.617 102.43 139.838 104.193 143.528 102.677Z" fill="black"/>
<path d="M140.796 150.275C144.786 150.275 148.021 147.041 148.021 143.051C148.021 139.061 144.786 135.827 140.796 135.827C136.807 135.827 133.572 139.061 133.572 143.051C133.572 147.041 136.807 150.275 140.796 150.275Z" fill="black"/>
<path d="M686.502 0.633789H464.707V173H686.502V0.633789Z" fill="#1400F5"/>
<path d="M553.424 173H734.662V83.0146H721.213C628.546 83.0146 553.424 123.302 553.424 173Z" fill="#FFC71F"/>
<path d="M900.691 172.451V173H733.395V83.0146H734.415L900.691 172.451Z" fill="#FF1F71"/>
<path d="M646.327 132.236L771.248 132.236V121.825L646.327 121.825V132.236Z" fill="white"/>
<path d="M646.327 151.945L771.248 151.945V141.534L646.327 141.534V151.945Z" fill="black"/>
<path d="M646.327 171.647L771.248 171.647V161.236L646.327 161.236V171.647Z" fill="white"/>
<path d="M922.676 99.1396C924.203 95.4534 922.452 91.2274 918.766 89.7005C915.08 88.1736 910.854 89.9241 909.327 93.6102C907.8 97.2964 909.551 101.522 913.237 103.049C916.923 104.576 921.149 102.826 922.676 99.1396Z" fill="black"/>
<path d="M915.97 150.699C919.96 150.699 923.194 147.465 923.194 143.475C923.194 139.485 919.96 136.251 915.97 136.251C911.98 136.251 908.746 139.485 908.746 143.475C908.746 147.465 911.98 150.699 915.97 150.699Z" fill="black"/>
<path d="M877.571 101.505C880.392 98.684 880.392 94.1099 877.571 91.2887C874.75 88.4675 870.176 88.4676 867.354 91.2887C864.533 94.1099 864.533 98.684 867.354 101.505C870.175 104.326 874.75 104.326 877.571 101.505Z" fill="black"/>
<path d="M872.474 150.699C876.464 150.699 879.698 147.465 879.698 143.475C879.698 139.485 876.464 136.251 872.474 136.251C868.484 136.251 865.25 139.485 865.25 143.475C865.25 147.465 868.484 150.699 872.474 150.699Z" fill="black"/>
<path d="M835.688 99.1416C837.215 95.4554 835.464 91.2293 831.778 89.7024C828.092 88.1755 823.866 89.926 822.339 93.6122C820.812 97.2984 822.562 101.524 826.249 103.051C829.935 104.578 834.161 102.828 835.688 99.1416Z" fill="black"/>
<path d="M828.984 150.699C832.974 150.699 836.208 147.465 836.208 143.475C836.208 139.485 832.974 136.251 828.984 136.251C824.994 136.251 821.76 139.485 821.76 143.475C821.76 147.465 824.994 150.699 828.984 150.699Z" fill="black"/>
<path d="M792.19 99.146C793.717 95.4599 791.966 91.2338 788.28 89.7069C784.594 88.18 780.368 89.9305 778.841 93.6167C777.314 97.3028 779.064 101.529 782.751 103.056C786.437 104.583 790.663 102.832 792.19 99.146Z" fill="black"/>
<path d="M785.484 150.7C789.474 150.7 792.708 147.465 792.708 143.476C792.708 139.486 789.474 136.251 785.484 136.251C781.494 136.251 778.26 139.486 778.26 143.476C778.26 147.465 781.494 150.7 785.484 150.7Z" fill="black"/>
</svg>
