<svg width="326" height="691" viewBox="0 0 326 691" fill="none" xmlns="http://www.w3.org/2000/svg">
<path d="M72.1239 187.015H0.125V368.16H72.1239V187.015Z" fill="#FF1F71"/>
<path d="M71.757 311.133H0L0 422.671H71.757V311.133Z" fill="#FF5B02"/>
<path d="M167.643 424.014H70.377V52.145C124.094 52.145 167.643 94.247 167.643 146.179V424.014Z" fill="#1400F5"/>
<path d="M168.125 423.54H0.322266V690.093H168.125V423.54Z" fill="#FF1F71"/>
<path d="M165.505 690.099H0.322266V530.405C91.5474 530.405 165.505 601.899 165.505 690.099Z" fill="#1400F5"/>
<path d="M0.322266 423.54C0.322266 423.557 0.322266 423.575 0.322266 423.592C0.322266 468.389 37.8841 504.708 84.2264 504.708C130.563 504.708 168.131 468.394 168.131 423.592C168.131 423.575 168.131 423.557 168.131 423.54H0.322266Z" fill="#FFC71F"/>
<path d="M168.123 487.147V638.896L325.087 487.147H168.123Z" fill="black"/>
<path d="M70.3799 422.962H0.322266V249.599H29.2353L70.3799 422.962Z" fill="#61D0FF"/>
<path d="M80.9816 250.709C80.3476 257.11 74.4621 261.805 67.841 261.192C61.2198 260.579 56.363 254.889 56.9971 248.488C57.6311 242.087 63.5165 237.392 70.1377 238.004C76.7589 238.617 81.6156 244.307 80.9816 250.709Z" fill="#FFC71F"/>
<path d="M81.2629 290.729C80.6289 297.13 74.7434 301.826 68.1222 301.213C61.501 300.6 56.6443 294.91 57.2783 288.509C57.9123 282.107 63.7978 277.412 70.419 278.025C77.0402 278.644 81.8969 284.328 81.2629 290.729Z" fill="#FFC71F"/>
<path d="M80.3355 336.909C82.5622 330.849 79.2853 324.19 73.0163 322.038C66.7473 319.885 59.8601 323.053 57.6334 329.114C55.4067 335.174 58.6836 341.833 64.9526 343.985C71.2216 346.138 78.1088 342.97 80.3355 336.909Z" fill="#FFC71F"/>
<path d="M88.3101 492.732C106.658 489.853 119.118 473.14 116.14 455.401C113.163 437.663 95.8747 425.617 77.5267 428.496C59.1787 431.375 46.7186 448.088 49.6964 465.827C52.6742 483.565 69.9621 495.611 88.3101 492.732Z" fill="#FF5B02"/>
<path d="M92.5524 469.938C97.8803 464.787 97.8803 456.436 92.5524 451.285C87.2245 446.134 78.5863 446.134 73.2584 451.285C67.9305 456.436 67.9305 464.787 73.2584 469.938C78.5863 475.089 87.2245 475.089 92.5524 469.938Z" fill="white"/>
<path d="M0.126953 201.272V0L200.509 0C200.504 111.159 110.789 201.272 0.126953 201.272Z" fill="black"/>
</svg>
