<svg width="154" height="103" viewBox="0 0 154 103" fill="none" xmlns="http://www.w3.org/2000/svg">
<rect width="92" height="103" rx="8" fill="black"/>
<path d="M24.4 69.6C21.3333 69.6 18.8833 68.5 17.05 66.3C15.25 64.1 14.35 60.9667 14.35 56.9C14.35 54.9333 14.6333 53.1667 15.2 51.6C15.8 50 16.5833 48.65 17.55 47.55C18.5167 46.45 19.6333 45.6 20.9 45C22.1667 44.4 23.5 44.1 24.9 44.1C26.3 44.1 27.5167 44.35 28.55 44.85C29.5833 45.35 30.6333 46.0333 31.7 46.9L31.5 42.75V33.4H35.65V69H32.25L31.9 66.15H31.75C30.7833 67.0833 29.6667 67.9 28.4 68.6C27.1667 69.2667 25.8333 69.6 24.4 69.6ZM25.3 66.15C26.4333 66.15 27.5 65.8833 28.5 65.35C29.5 64.7833 30.5 63.9333 31.5 62.8V50.1C30.4667 49.1667 29.4667 48.5167 28.5 48.15C27.5667 47.75 26.6 47.55 25.6 47.55C24.6333 47.55 23.7167 47.7833 22.85 48.25C22.0167 48.6833 21.2833 49.3167 20.65 50.15C20.0167 50.95 19.5167 51.9167 19.15 53.05C18.7833 54.1833 18.6 55.45 18.6 56.85C18.6 59.7833 19.1833 62.0667 20.35 63.7C21.5167 65.3333 23.1667 66.15 25.3 66.15ZM43.8344 69V44.7H47.9344V69H43.8344ZM45.9344 39.7C45.1344 39.7 44.451 39.45 43.8844 38.95C43.351 38.45 43.0844 37.8167 43.0844 37.05C43.0844 36.25 43.351 35.6167 43.8844 35.15C44.451 34.65 45.1344 34.4 45.9344 34.4C46.7344 34.4 47.401 34.65 47.9344 35.15C48.501 35.6167 48.7844 36.25 48.7844 37.05C48.7844 37.8167 48.501 38.45 47.9344 38.95C47.401 39.45 46.7344 39.7 45.9344 39.7ZM56.1391 79.25V44.7H59.5391L59.8891 47.5H60.0391C61.1391 46.5667 62.3391 45.7667 63.6391 45.1C64.9724 44.4333 66.3557 44.1 67.7891 44.1C69.3557 44.1 70.7391 44.4 71.9391 45C73.1391 45.5667 74.1391 46.4 74.9391 47.5C75.7391 48.5667 76.3391 49.8667 76.7391 51.4C77.1724 52.9 77.3891 54.6 77.3891 56.5C77.3891 58.5667 77.1057 60.4167 76.5391 62.05C75.9724 63.65 75.2057 65.0167 74.2391 66.15C73.2724 67.2833 72.1557 68.15 70.8891 68.75C69.6224 69.3167 68.2891 69.6 66.8891 69.6C65.7557 69.6 64.6224 69.35 63.4891 68.85C62.3891 68.35 61.2724 67.6667 60.1391 66.8L60.2391 71.05V79.25H56.1391ZM66.1891 66.15C67.1891 66.15 68.1057 65.9333 68.9391 65.5C69.8057 65.0333 70.5391 64.4 71.1391 63.6C71.7724 62.7667 72.2557 61.75 72.5891 60.55C72.9557 59.35 73.1391 58 73.1391 56.5C73.1391 55.1667 73.0224 53.95 72.7891 52.85C72.5557 51.75 72.1724 50.8167 71.6391 50.05C71.1391 49.25 70.4724 48.6333 69.6391 48.2C68.8391 47.7667 67.8724 47.55 66.7391 47.55C65.7057 47.55 64.6557 47.8333 63.5891 48.4C62.5557 48.9667 61.4391 49.7833 60.2391 50.85V63.6C61.3391 64.5333 62.4057 65.2 63.4391 65.6C64.4724 65.9667 65.3891 66.15 66.1891 66.15Z" fill="white"/>
<path d="M117.7 67.6C116.1 67.6 114.6 67.3167 113.2 66.75C111.8 66.1833 110.583 65.3667 109.55 64.3C108.55 63.2 107.75 61.8667 107.15 60.3C106.583 58.7 106.3 56.9 106.3 54.9C106.3 52.8667 106.617 51.0667 107.25 49.5C107.883 47.9 108.733 46.55 109.8 45.45C110.867 44.35 112.1 43.5167 113.5 42.95C114.933 42.3833 116.433 42.1 118 42.1C119.6 42.1 120.967 42.3833 122.1 42.95C123.233 43.5167 124.233 44.1833 125.1 44.95L123 47.65C122.3 47.0167 121.55 46.5 120.75 46.1C119.983 45.7 119.117 45.5 118.15 45.5C117.05 45.5 116.033 45.7333 115.1 46.2C114.167 46.6333 113.367 47.2667 112.7 48.1C112.033 48.9333 111.5 49.9333 111.1 51.1C110.733 52.2333 110.55 53.5 110.55 54.9C110.55 56.3 110.733 57.5667 111.1 58.7C111.467 59.8333 111.967 60.8167 112.6 61.65C113.267 62.45 114.067 63.0833 115 63.55C115.933 63.9833 116.95 64.2 118.05 64.2C119.183 64.2 120.217 63.9667 121.15 63.5C122.117 63 122.983 62.4167 123.75 61.75L125.55 64.5C124.45 65.4667 123.233 66.2333 121.9 66.8C120.567 67.3333 119.167 67.6 117.7 67.6ZM130.903 67V31.4H135.003V41.1L134.853 46.1C136.019 45 137.236 44.0667 138.503 43.3C139.769 42.5 141.253 42.1 142.953 42.1C145.519 42.1 147.386 42.9 148.553 44.5C149.753 46.1 150.353 48.4667 150.353 51.6V67H146.253V52.15C146.253 49.85 145.886 48.2 145.153 47.2C144.419 46.1667 143.253 45.65 141.653 45.65C140.386 45.65 139.269 45.9667 138.303 46.6C137.336 47.2333 136.236 48.1667 135.003 49.4V67H130.903Z" fill="black"/>
</svg>
