<svg width="326" height="691" viewBox="0 0 326 691" fill="none" xmlns="http://www.w3.org/2000/svg">
<path d="M253.114 187.015H325.113V368.16H253.114V187.015Z" fill="#FF1F71"/>
<path d="M253.481 311.133H325.238V422.671H253.481V311.133Z" fill="#FF5B02"/>
<path d="M157.595 424.014H254.861V52.145C201.144 52.145 157.595 94.247 157.595 146.179V424.014Z" fill="#1400F5"/>
<path d="M157.114 423.54H324.916V690.093H157.114V423.54Z" fill="#FF1F71"/>
<path d="M159.734 690.099H324.916V530.405C233.691 530.405 159.734 601.899 159.734 690.099Z" fill="#1400F5"/>
<path d="M324.916 423.54C324.916 423.557 324.916 423.575 324.916 423.592C324.916 468.389 287.354 504.708 241.012 504.708C194.676 504.708 157.108 468.394 157.108 423.592C157.108 423.575 157.108 423.557 157.108 423.54H324.916Z" fill="#FFC71F"/>
<path d="M157.115 487.147V638.896L0.15083 487.147H157.115Z" fill="black"/>
<path d="M254.858 422.962H324.916V249.599H296.003L254.858 422.962Z" fill="#61D0FF"/>
<path d="M244.257 250.709C244.891 257.11 250.776 261.805 257.397 261.192C264.019 260.579 268.875 254.889 268.241 248.488C267.607 242.087 261.722 237.392 255.101 238.004C248.479 238.617 243.623 244.307 244.257 250.709Z" fill="#FFC71F"/>
<path d="M243.975 290.729C244.609 297.13 250.495 301.826 257.116 301.213C263.737 300.6 268.594 294.91 267.96 288.509C267.326 282.107 261.44 277.412 254.819 278.025C248.198 278.644 243.341 284.328 243.975 290.729Z" fill="#FFC71F"/>
<path d="M244.903 336.909C242.676 330.849 245.953 324.19 252.222 322.038C258.491 319.885 265.378 323.053 267.605 329.114C269.832 335.174 266.555 341.833 260.286 343.985C254.017 346.138 247.129 342.97 244.903 336.909Z" fill="#FFC71F"/>
<path d="M236.928 492.732C218.58 489.853 206.12 473.14 209.098 455.401C212.076 437.663 229.364 425.617 247.712 428.496C266.06 431.375 278.52 448.088 275.542 465.827C272.564 483.565 255.276 495.611 236.928 492.732Z" fill="#FF5B02"/>
<path d="M232.686 469.938C227.358 464.787 227.358 456.436 232.686 451.285C238.014 446.134 246.652 446.134 251.98 451.285C257.308 456.436 257.308 464.787 251.98 469.938C246.652 475.089 238.014 475.089 232.686 469.938Z" fill="white"/>
<path d="M325.111 201.272V0L124.729 0C124.735 111.159 214.449 201.272 325.111 201.272Z" fill="black"/>
</svg>
