<svg width="1082" height="172" viewBox="0 0 1082 172" fill="none" xmlns="http://www.w3.org/2000/svg">
<path d="M294.293 0L543.971 0V170.465H522.33C396.391 170.465 294.293 94.1483 294.293 0Z" fill="#FF5B02"/>
<path d="M544.052 25.3291H445.251C430.011 25.3291 417.66 37.6799 417.66 52.9204C417.66 68.1609 430.011 80.5117 445.251 80.5117H544.052V25.3291Z" fill="black"/>
<path d="M171.988 162.861V0L392.516 0C392.509 89.9455 293.776 162.861 171.988 162.861Z" fill="black"/>
<path d="M198.604 0.000488281H0.255859V141.316H198.604V0.000488281Z" fill="#FFC71F"/>
<path d="M198.827 67.7551H103.582V163H198.827V67.7551Z" fill="#FF5B02"/>
<path d="M179.545 46.558H199.291V24.7397H179.545C173.518 24.7397 168.639 29.6256 168.639 35.6457C168.639 41.6722 173.518 46.558 179.545 46.558Z" fill="#FF1F71"/>
<path d="M251.538 46.558C257.564 46.558 262.444 41.6722 262.444 35.6457C262.444 29.6192 257.558 24.7397 251.538 24.7397H199.289V46.558H251.538Z" fill="#1400F5"/>
<path d="M787.945 0L538.268 0V171.099H559.908C685.847 171.099 787.945 94.4936 787.945 0Z" fill="#FF5B02"/>
<path d="M910.25 163.495V0L689.723 0C689.723 90.3002 788.456 163.495 910.25 163.495Z" fill="black"/>
<path d="M883.634 141.315L1081.98 141.315V-7.62939e-05L883.634 -7.62939e-05V141.315Z" fill="#FFC71F"/>
<path d="M883.452 163.421H978.697V68.1763L883.452 68.1763V163.421Z" fill="#FF5B02"/>
<path d="M902.732 46.976H882.986V25.1577H902.732C908.759 25.1577 913.638 30.0435 913.638 36.0637C913.645 42.0902 908.759 46.976 902.732 46.976Z" fill="#FF1F71"/>
<path d="M830.74 46.976C824.714 46.976 819.834 42.0902 819.834 36.0637C819.834 30.0372 824.72 25.1577 830.74 25.1577H882.989V46.976H830.74Z" fill="#1400F5"/>
</svg>
